<svg id="Group_537" data-name="Group 537" xmlns="http://www.w3.org/2000/svg" xmlns:xlink="http://www.w3.org/1999/xlink" width="125.697" height="205.525" viewBox="0 0 125.697 205.525">
  <defs>
    <clipPath id="clip-path">
      <rect id="Rectangle_257" data-name="Rectangle 257" width="125.697" height="205.525" fill="none"/>
    </clipPath>
  </defs>
  <g id="Group_536" data-name="Group 536" clip-path="url(#clip-path)">
    <path id="Subtraction_2" data-name="Subtraction 2" d="M117.4,202.525H5.295A5.3,5.3,0,0,1,0,197.23V5.3A5.3,5.3,0,0,1,5.295,0H117.4A5.3,5.3,0,0,1,122.7,5.3V197.23A5.3,5.3,0,0,1,117.4,202.525ZM61.344,185.353a5.586,5.586,0,1,0,5.586,5.586A5.59,5.59,0,0,0,61.344,185.353ZM16.8,10.759a5.3,5.3,0,0,0-5.3,5.295V175.223a5.3,5.3,0,0,0,5.3,5.295h89.1a5.3,5.3,0,0,0,5.295-5.295V16.054a5.3,5.3,0,0,0-5.295-5.295Z" transform="translate(1.502 1.499)" fill="#011a2c" stroke="rgba(0,0,0,0)" stroke-miterlimit="10" stroke-width="1"/>
    <path id="Path_126" data-name="Path 126" d="M37.564,9.887C35.645,4.177,28.044-.056,18.965,0,8.46.067-.032,5.846,0,12.909S8.573,25.646,19.079,25.58c9.079-.057,16.641-4.385,18.509-10.116,0,0,58.778,4.545,61.192,4.529,4.721-.029,8.531-3.5,8.513-7.752s-3.861-7.677-8.581-7.647C96.3,4.608,37.564,9.887,37.564,9.887" transform="translate(94.013 49.405) rotate(90)" fill="#011a2c"/>
    <path id="Path_127" data-name="Path 127" d="M74.527.347a1.006,1.006,0,0,0,.164.023l32.09,1.958a.961.961,0,0,1,.811,1.015v.113l0,.934a1.476,1.476,0,0,1-1.3,1.588l-28.352.456a1.2,1.2,0,0,0-1.317,1.275c0,.873.6,1.074,1.328,1.069l28.366.257a1.472,1.472,0,0,1,1.307,1.572,1.479,1.479,0,0,1-1.3,1.59l-28.352.454a1.2,1.2,0,0,0-1.317,1.275c0,.873.6,1.074,1.328,1.069l28.364.257a1.47,1.47,0,0,1,1.307,1.572l.006,1.117s-.352,1.065-.807,1.1L74.974,21.2c-9.27.943-13.05-3.4-14.59-6.942a1.279,1.279,0,0,0-1.26-.844c-8.751.794-48.344,5.152-50.543,5.166C3.861,18.607.02,15.156,0,10.869S3.791,3.08,8.512,3.05c2.193-.013,41.6,3.817,50.522,4.508a1.34,1.34,0,0,0,1.284-.927C63.9-1.836,73.6.135,74.527.347" transform="translate(34.3 156.881) rotate(-90)" fill="#011a2c"/>
  </g>
</svg>
