<svg xmlns="http://www.w3.org/2000/svg" xmlns:xlink="http://www.w3.org/1999/xlink" width="30.965" height="29.55" viewBox="0 0 30.965 29.55">
  <defs>
    <clipPath id="clip-path">
      <rect id="Rectangle_268" data-name="Rectangle 268" width="30.965" height="29.55" transform="translate(0 0)" fill="#fff"/>
    </clipPath>
  </defs>
  <g id="Group_580" data-name="Group 580" transform="translate(0 0)">
    <g id="Group_580-2" data-name="Group 580" transform="translate(0 0)" clip-path="url(#clip-path)">
      <path id="Path_152" data-name="Path 152" d="M21.075,9.273l9.1,1.333a.92.92,0,0,1,.508,1.57l-6.6,6.415a.92.92,0,0,0-.266.814l1.545,9.07a.92.92,0,0,1-1.336.968L15.9,25.151a.921.921,0,0,0-.856,0L6.891,29.423a.92.92,0,0,1-1.334-.971l1.565-9.066a.92.92,0,0,0-.264-.814L.279,12.142A.92.92,0,0,1,.79,10.573L9.9,9.26a.92.92,0,0,0,.693-.5L14.67.512a.92.92,0,0,1,1.65,0l4.062,8.255a.92.92,0,0,0,.692.5" transform="translate(0 0)" fill="#fff"/>
    </g>
  </g>
</svg>
