<svg xmlns="http://www.w3.org/2000/svg" xmlns:xlink="http://www.w3.org/1999/xlink" width="150" height="150" viewBox="0 0 150 150">
  <defs>
    <clipPath id="clip-path">
      <rect id="Rectangle_1408" data-name="Rectangle 1408" width="87.873" height="87.873" fill="none"/>
    </clipPath>
  </defs>
  <g id="Group_469" data-name="Group 469" transform="translate(-1242 -909)">
    <circle id="Ellipse_35" data-name="Ellipse 35" cx="75" cy="75" r="75" transform="translate(1242 909)" fill="#fff"/>
    <g id="Group_555" data-name="Group 555" transform="translate(1275.063 942.064)">
      <path id="Path_372" data-name="Path 372" d="M138.192,87.148l-5.831,6.032-6.969,9.986,2.144,2.614,9.249-1.139.2,2.413-9.719,12.668-1.407,6.573-1.475,5.29h23.592l.737-3.62-2.748-4.156,1.437-5.831,5.332-12.667-5.7-15.214Z" transform="translate(-65.333 -45.774)" fill="#f0d979"/>
      <g id="Group_554" data-name="Group 554">
        <g id="Group_553" data-name="Group 553" clip-path="url(#clip-path)">
          <path id="Path_373" data-name="Path 373" d="M122.529,131.667c-1.73-.67-2.243-1.961-2.3-3.764a5.086,5.086,0,0,1,1.984-4.641,2.521,2.521,0,0,0,1.012-2.449,18.46,18.46,0,0,1,.011-3.339,3.5,3.5,0,0,1,.7-1.833c2.986-3.5,6.044-6.94,9.05-10.424a4.884,4.884,0,0,0,.57-1.26l-.247-.159a2.713,2.713,0,0,0-.57.279,5.49,5.49,0,0,1-4,1.188c-1.025-.063-2.058.011-3.086-.024a3.935,3.935,0,0,1-3.866-3.549,5.114,5.114,0,0,1,.708-3.942,3.623,3.623,0,0,1,1.4-1.212c2.64-.992,3.805-3.162,4.619-5.605,1.03-3.091,1.078-3.159,4.382-3.271.139,0,.277-.029.558-.061,0-.4-.011-.785,0-1.171a2.89,2.89,0,0,1,3.491-3.012,14.94,14.94,0,0,1,9.76,5.5,19.244,19.244,0,0,1,4.133,10.349c.032.276.116.545.176.818v4.805c-.048.191-.106.38-.143.573-.369,1.956-.618,3.944-1.135,5.86a9.731,9.731,0,0,1-3.045,5.255,3.694,3.694,0,0,0-1.528,3.785,1.433,1.433,0,0,1,0,.427,2.437,2.437,0,0,0,1.022,2.517,5.034,5.034,0,0,1,1.953,4.566c-.05,1.8-.58,3.085-2.274,3.79Zm5.357-16.136c5.238,0,10.238.007,15.238-.018a1.677,1.677,0,0,0,.908-.4,8.782,8.782,0,0,0,2.867-4.476,25.4,25.4,0,0,0,.634-13.373c-1.1-5-3.852-8.735-8.863-10.477-.7-.245-1.454-.351-2.294-.548,0,.732.034,1.273-.006,1.809a2.5,2.5,0,0,1-2.268,2.493,8.272,8.272,0,0,1-1.71.048c-.567-.041-.795.19-.949.711a17.467,17.467,0,0,1-.879,2.408,9.754,9.754,0,0,1-4.541,5.057c-1.335.639-1.549,1.006-1.354,2.448a1.122,1.122,0,0,0,1.19,1.1c.8.018,1.6-.04,2.4.017a4.384,4.384,0,0,0,3.192-.9,2.893,2.893,0,0,1,2.92-.431c2.086.783,2.77,3.782,1.239,5.654-1.121,1.371-2.32,2.679-3.485,4.015l-4.239,4.862M145.049,128.7a3.023,3.023,0,0,0-1.188-3.6c-.138-.1-.225-.281-.37-.353a2.688,2.688,0,0,0-1.044-.414c-5.517-.026-11.034-.019-16.551-.014a1.486,1.486,0,0,0-.663.094,3.629,3.629,0,0,0-1.907,4.29ZM142.2,118.52H126.169v2.8H142.2Z" transform="translate(-63.146 -43.794)"/>
          <path id="Path_374" data-name="Path 374" d="M2.928,55.636c0,2.518-.023,4.891.011,7.263a1.44,1.44,0,0,0,1.517,1.522c.312.026.629.014.943.014q26.128,0,52.256,0a7.6,7.6,0,0,1,1.195.075,1.414,1.414,0,0,1,.035,2.777,6.63,6.63,0,0,1-1.194.082q-20.122.006-40.243,0H16.115c0,.494.028.941-.006,1.384a1.462,1.462,0,0,1-1.526,1.508A1.445,1.445,0,0,1,13.2,68.717c-.017-.4,0-.793,0-1.284-.387-.021-.716-.053-1.045-.056-2.716-.023-5.436.044-8.147-.087A4.214,4.214,0,0,1,.012,63.121C0,62.835,0,62.549,0,62.263Q0,33.689,0,5.116,0,0,5.109,0q31.62,0,63.239,0c2.4,0,4.089,1.118,4.661,3.139a6.611,6.611,0,0,1,.222,1.777q.02,14.8,0,29.6a3.572,3.572,0,0,1-.131,1.1,1.421,1.421,0,0,1-2.722-.125,5.013,5.013,0,0,1-.071-1.109q-.006-9.31,0-18.62V14.7H2.968V52.709H4.1q24.627,0,49.253,0a4.619,4.619,0,0,1,1.269.129A1.3,1.3,0,0,1,55.6,54.35,1.311,1.311,0,0,1,54.4,55.6a7.557,7.557,0,0,1-1.113.036H2.928ZM70.308,11.649c0-2.186,0-4.324,0-6.461,0-1.858-.41-2.265-2.273-2.265H5.168a6.27,6.27,0,0,0-.856.022A1.373,1.373,0,0,0,2.966,4.272c-.05,2.448-.019,4.9-.019,7.378Z" transform="translate(0 0)"/>
          <path id="Path_375" data-name="Path 375" d="M76.04,48.733q-8.448,0-16.9,0c-2.539,0-3.6-1.058-3.6-3.593,0-1.63-.013-3.26,0-4.889A2.941,2.941,0,0,1,58.793,37q17.239-.021,34.478,0a2.957,2.957,0,0,1,3.267,3.242c.027,1.686.016,3.373,0,5.06-.016,2.3-1.137,3.425-3.434,3.428q-8.534.011-17.068,0M58.516,45.745H93.543V39.993H58.516Z" transform="translate(-29.171 -19.429)"/>
          <path id="Path_376" data-name="Path 376" d="M43.112,80.228H71.686c1.476,0,2.162.479,2.139,1.488-.021.975-.7,1.436-2.122,1.436H14.471c-.114,0-.229,0-.343,0-1.084-.028-1.77-.592-1.777-1.461s.68-1.457,1.759-1.46q6.092-.011,12.184,0H43.112" transform="translate(-6.487 -42.139)"/>
          <path id="Path_377" data-name="Path 377" d="M12.314,45.849c0-1.859-.008-3.718,0-5.577a2.975,2.975,0,0,1,3.235-3.281q5.577-.041,11.155,0a2.913,2.913,0,0,1,3.185,3.146q.053,5.663,0,11.327a2.928,2.928,0,0,1-3.221,3.113q-5.535.022-11.069,0a3.011,3.011,0,0,1-3.283-3.324c-.009-1.8,0-3.6,0-5.406M26.91,40H15.316v11.6H26.91Z" transform="translate(-6.466 -19.419)"/>
          <path id="Path_378" data-name="Path 378" d="M40.9,95.467H14.481c-1.4,0-2.111-.483-2.127-1.44s.719-1.483,2.089-1.483H67.372a6.1,6.1,0,0,1,.686.014,1.449,1.449,0,0,1-.047,2.9c-.284.024-.572.011-.857.011H40.9" transform="translate(-6.489 -48.607)"/>
          <path id="Path_379" data-name="Path 379" d="M76.13,67.9q9.139,0,18.278,0a4.686,4.686,0,0,1,1.025.054,1.312,1.312,0,0,1,1.1,1.256,1.3,1.3,0,0,1-.843,1.436,3.353,3.353,0,0,1-1.175.173q-18.449.012-36.9,0a3.294,3.294,0,0,1-1.093-.15,1.425,1.425,0,0,1,.219-2.721,5.046,5.046,0,0,1,1.025-.049q9.182,0,18.363,0" transform="translate(-29.211 -35.665)"/>
          <path id="Path_380" data-name="Path 380" d="M32.622,161.585c-3.523.115-5.369-2.457-4.814-6.152a1.282,1.282,0,0,1,1.335-1.108,1.268,1.268,0,0,1,1.4,1,9.254,9.254,0,0,1,.128,1.7,1.489,1.489,0,0,0,1.652,1.636,12.835,12.835,0,0,1,1.367.044,1.442,1.442,0,0,1-.13,2.879c-.312.023-.628,0-.941,0" transform="translate(-14.555 -81.058)"/>
          <path id="Path_381" data-name="Path 381" d="M89.287,166.429c-.514,0-1.032.037-1.542-.009a1.368,1.368,0,0,1-1.313-1.337c-.014-.742.333-1.369,1.076-1.431a21.667,21.667,0,0,1,3.661,0,1.217,1.217,0,0,1,1.061,1.437,1.328,1.328,0,0,1-1.315,1.331c-.539.045-1.085.009-1.628.008" transform="translate(-45.398 -85.917)"/>
          <path id="Path_382" data-name="Path 382" d="M70.824,166.423c-.514,0-1.032.034-1.542-.008a1.315,1.315,0,0,1-1.324-1.313,1.236,1.236,0,0,1,1.112-1.477,22.179,22.179,0,0,1,3.578.009c.758.06,1.091.695,1.1,1.419a1.4,1.4,0,0,1-1.3,1.364,1.932,1.932,0,0,1-.256.023c-.458,0-.915,0-1.373,0v-.017" transform="translate(-35.692 -85.907)"/>
          <path id="Path_383" data-name="Path 383" d="M107.8,166.427c-.514,0-1.031.032-1.542-.007a1.331,1.331,0,0,1-1.315-1.333,1.22,1.22,0,0,1,1.061-1.438,21.572,21.572,0,0,1,3.661,0,1.249,1.249,0,0,1,1.058,1.516,1.317,1.317,0,0,1-1.294,1.253c-.539.045-1.085.009-1.628.009" transform="translate(-55.12 -85.915)"/>
          <path id="Path_384" data-name="Path 384" d="M52.313,166.431a14.95,14.95,0,0,1-1.625-.011,1.29,1.29,0,0,1-1.232-1.306c-.047-.745.293-1.384,1.034-1.447a21.829,21.829,0,0,1,3.741.012,1.2,1.2,0,0,1,1,1.4,1.3,1.3,0,0,1-1.2,1.337,15.228,15.228,0,0,1-1.711.012v.006" transform="translate(-25.974 -85.926)"/>
          <path id="Path_385" data-name="Path 385" d="M26.175,15.247a1.469,1.469,0,0,1-1.484-1.453,1.527,1.527,0,0,1,1.43-1.44,1.46,1.46,0,0,1,1.457,1.387,1.419,1.419,0,0,1-1.4,1.506" transform="translate(-12.969 -6.488)"/>
          <path id="Path_386" data-name="Path 386" d="M15.25,13.811a1.436,1.436,0,0,1-1.393,1.438,1.473,1.473,0,0,1-1.5-1.435,1.517,1.517,0,0,1,1.5-1.456,1.476,1.476,0,0,1,1.4,1.452" transform="translate(-6.489 -6.491)"/>
          <path id="Path_387" data-name="Path 387" d="M38.471,15.251a1.44,1.44,0,0,1-1.4-1.434,1.48,1.48,0,0,1,1.478-1.457A1.446,1.446,0,0,1,39.934,13.9a1.408,1.408,0,0,1-1.464,1.355" transform="translate(-19.471 -6.492)"/>
        </g>
      </g>
    </g>
  </g>
</svg>
