<svg xmlns="http://www.w3.org/2000/svg" xmlns:xlink="http://www.w3.org/1999/xlink" width="150" height="150" viewBox="0 0 150 150">
  <defs>
    <clipPath id="clip-path">
      <rect id="Rectangle_1409" data-name="Rectangle 1409" width="89.686" height="96.498" fill="none"/>
    </clipPath>
  </defs>
  <g id="Group_468" data-name="Group 468" transform="translate(-903 -891)">
    <circle id="Ellipse_36" data-name="Ellipse 36" cx="75" cy="75" r="75" transform="translate(903 891)" fill="#fff"/>
    <g id="Group_557" data-name="Group 557" transform="translate(933.157 917.751)">
      <g id="Group_556" data-name="Group 556" clip-path="url(#clip-path)">
        <path id="Path_390" data-name="Path 390" d="M130.18,49.346q-.467-.105-.943-.188h-5.687l-1.441,2.981-4.548,2a21.187,21.187,0,0,0-1.994-1.164c-.166,0-4.269,3.77-4.269,3.77l1.275,3.049-1.94,5.045-3.16.887v6.6h3.271l2,4.768L110.8,79.47l4.546,4.435,3.049-1.219,4.352,1.774.36,2.5,6.511.726c.19-.037.376-.083.563-.125.249-.056.5-.108.744-.173V49.518c-.245-.065-.5-.117-.744-.173" transform="translate(-44.167 -20.202)" fill="#f0d979"/>
        <circle id="Ellipse_47" data-name="Ellipse 47" cx="8" cy="8" r="8" transform="translate(73.843 40.249)" fill="#fff"/>
        <path id="Path_391" data-name="Path 391" d="M38.987,53.12V44.472L34.33,43.64l-1.5-4.99,1.83-4.49L28.8,29.087l-3.865,2.081-4.6-2.081-2.48-4.657H10.879L8.615,28.671l-1.631,1.3v.068a20.371,20.371,0,0,0-2.012.92V67.069a20.24,20.24,0,0,0,2.012.921v.067L11.3,73.41h7.651l1-4.657,4.74-1.747,4.724,1.83,5.255-6.071-2.245-3.492,1.913-4.408Z" transform="translate(-2.043 -10.04)" fill="#f0d979"/>
        <circle id="Ellipse_46" data-name="Ellipse 46" cx="6.5" cy="6.5" r="6.5" transform="translate(5.843 32.249)" fill="#fff"/>
        <path id="Path_388" data-name="Path 388" d="M145.364,49.159h-.943q.475.083.943.188Z" transform="translate(-59.351 -20.202)" fill="#ef9336"/>
        <path id="Path_389" data-name="Path 389" d="M145.629,114.532v-.188c-.187.042-.373.088-.563.125Z" transform="translate(-59.616 -46.991)" fill="#ef9336"/>
        <path id="Path_392" data-name="Path 392" d="M15.834,70.487A14.36,14.36,0,0,1,9.043,68.78a1.463,1.463,0,1,1,1.391-2.573,11.376,11.376,0,1,0,0-20.042,1.463,1.463,0,1,1-1.391-2.573,14.308,14.308,0,1,1,6.791,26.894" transform="translate(-3.4 -17.213)" fill="#231815"/>
        <path id="Path_393" data-name="Path 393" d="M14.976,54.191a5.852,5.852,0,1,0,5.861,5.852,5.863,5.863,0,0,0-5.861-5.852m0,14.627a8.776,8.776,0,1,1,8.79-8.776,8.792,8.792,0,0,1-8.79,8.776" transform="translate(-2.542 -21.068)" fill="#231815"/>
        <path id="Path_394" data-name="Path 394" d="M18.71,74.066H12.959A3.368,3.368,0,0,1,9.591,70.7V69.212a.422.422,0,0,0-.287-.405,1.462,1.462,0,1,1,.872-2.791,3.329,3.329,0,0,1,2.343,3.2V70.7a.438.438,0,0,0,.439.439H18.71a.439.439,0,0,0,.438-.439V69.212a3.329,3.329,0,0,1,2.344-3.2,18.91,18.91,0,0,0,3.143-1.3,3.333,3.333,0,0,1,3.925.6l1.059,1.056a.44.44,0,0,0,.62,0l4.067-4.06a.437.437,0,0,0,0-.62l-1.058-1.057a3.328,3.328,0,0,1-.606-3.918,18.786,18.786,0,0,0,1.3-3.139,3.333,3.333,0,0,1,3.2-2.34h1.494a.439.439,0,0,0,.439-.438V45.061a.439.439,0,0,0-.439-.438H37.148a3.333,3.333,0,0,1-3.2-2.34,18.741,18.741,0,0,0-1.3-3.136,3.33,3.33,0,0,1,.6-3.921L34.3,34.169a.437.437,0,0,0,0-.619l-4.068-4.061a.441.441,0,0,0-.621,0l-1.057,1.056a3.338,3.338,0,0,1-3.925.6,18.867,18.867,0,0,0-3.143-1.3,3.329,3.329,0,0,1-2.343-3.2V25.159a.439.439,0,0,0-.438-.438H12.959a.439.439,0,0,0-.439.438v1.492a3.33,3.33,0,0,1-2.343,3.2A1.462,1.462,0,1,1,9.3,27.057a.424.424,0,0,0,.287-.406V25.159A3.368,3.368,0,0,1,12.959,21.8H18.71a3.368,3.368,0,0,1,3.367,3.362v1.492a.423.423,0,0,0,.287.406A21.9,21.9,0,0,1,26,28.56a.417.417,0,0,0,.493-.082l1.058-1.057a3.376,3.376,0,0,1,4.762,0l4.067,4.061a3.358,3.358,0,0,1,0,4.755l-1.059,1.056a.422.422,0,0,0-.082.494,21.786,21.786,0,0,1,1.506,3.623.423.423,0,0,0,.406.287h1.494a3.369,3.369,0,0,1,3.368,3.363V50.8a3.369,3.369,0,0,1-3.368,3.362H37.148a.424.424,0,0,0-.406.287,21.742,21.742,0,0,1-1.507,3.626.421.421,0,0,0,.083.492l1.059,1.057a3.358,3.358,0,0,1,0,4.755l-4.066,4.06a3.374,3.374,0,0,1-4.762,0l-1.059-1.057A.42.42,0,0,0,26,67.3a21.935,21.935,0,0,1-3.63,1.5.421.421,0,0,0-.288.405V70.7a3.368,3.368,0,0,1-3.367,3.363" transform="translate(-3.401 -8.958)" fill="#231815"/>
        <path id="Path_395" data-name="Path 395" d="M133.505,84.6a8.895,8.895,0,1,1,0-17.789,1.462,1.462,0,1,1,0,2.924,5.971,5.971,0,1,0,0,11.941,1.462,1.462,0,1,1,0,2.924" transform="translate(-51.205 -27.457)" fill="#231815"/>
        <path id="Path_396" data-name="Path 396" d="M127.465,88.185h-4.5a2.952,2.952,0,0,1-2.952-2.948V84.071a18.415,18.415,0,0,1-2.893-1.21l-.839.835a3.026,3.026,0,0,1-4.175,0l-3.181-3.176a2.947,2.947,0,0,1,0-4.168l.829-.828a18.44,18.44,0,0,1-1.193-2.9h-1.182a2.954,2.954,0,0,1-2.952-2.948V65.185a2.954,2.954,0,0,1,2.952-2.948h1.169a18.63,18.63,0,0,1,1.212-2.889l-.835-.836a2.949,2.949,0,0,1,0-4.169l3.181-3.176a3.025,3.025,0,0,1,4.175,0l.829.825a18.568,18.568,0,0,1,2.9-1.189v-1.18a2.953,2.953,0,0,1,2.952-2.948h4.5a1.462,1.462,0,1,1,0,2.925h-4.5l-.024,1.19a2.92,2.92,0,0,1-2.058,2.8,14.517,14.517,0,0,0-2.4,1,2.927,2.927,0,0,1-3.444-.53l-.827-.825L111,56.41l.829.859a2.92,2.92,0,0,1,.529,3.439,14.363,14.363,0,0,0-1,2.4,2.922,2.922,0,0,1-2.809,2.053h-1.169l-.024,4.514,1.192.024a2.922,2.922,0,0,1,2.809,2.055,14.434,14.434,0,0,0,1,2.4,2.918,2.918,0,0,1-.529,3.438l-.829.828,3.181,3.207.861-.826a2.926,2.926,0,0,1,3.444-.528,14.411,14.411,0,0,0,2.4.994,2.921,2.921,0,0,1,2.058,2.8v1.167l4.52.024a1.462,1.462,0,1,1,0,2.924" transform="translate(-42.916 -19.182)" fill="#231815"/>
        <path id="Path_397" data-name="Path 397" d="M125.091,93.847H98.821a1.462,1.462,0,1,1,0-2.924h26.27a1.676,1.676,0,0,0,1.675-1.673V24.976a1.676,1.676,0,0,0-1.675-1.672H99.3a1.462,1.462,0,1,1,0-2.924h25.789a4.606,4.606,0,0,1,4.6,4.6V89.251a4.607,4.607,0,0,1-4.6,4.6" transform="translate(-40.01 -8.375)" fill="#231815"/>
        <path id="Path_398" data-name="Path 398" d="M128.231,33.829H98.821a1.462,1.462,0,1,1,0-2.924h29.41a1.462,1.462,0,1,1,0,2.924" transform="translate(-40.01 -12.701)" fill="#231815"/>
        <path id="Path_399" data-name="Path 399" d="M128.231,130.9H98.821a1.462,1.462,0,1,1,0-2.924h29.41a1.462,1.462,0,1,1,0,2.924" transform="translate(-40.01 -52.594)" fill="#231815"/>
        <path id="Path_400" data-name="Path 400" d="M116.238,136.752h-4.209a1.462,1.462,0,1,1,0-2.924h4.209a1.462,1.462,0,1,1,0,2.924" transform="translate(-45.438 -54.998)" fill="#231815"/>
        <path id="Path_401" data-name="Path 401" d="M5.628,2.925a2.7,2.7,0,0,0-2.7,2.7V90.878a2.7,2.7,0,0,0,2.7,2.7H49.1a2.7,2.7,0,0,0,2.7-2.7V5.62a2.7,2.7,0,0,0-2.7-2.7ZM49.1,96.5H5.628A5.63,5.63,0,0,1,0,90.878V5.62A5.63,5.63,0,0,1,5.628,0H49.1A5.631,5.631,0,0,1,54.73,5.62V90.878A5.631,5.631,0,0,1,49.1,96.5" fill="#231815"/>
        <path id="Path_402" data-name="Path 402" d="M46.278,152.941H40.7a1.462,1.462,0,1,1,0-2.924h5.583a1.462,1.462,0,1,1,0,2.924" transform="translate(-16.122 -61.651)" fill="#231815"/>
        <path id="Path_403" data-name="Path 403" d="M46.134,8.59H30.11L26.376,2.2A1.464,1.464,0,0,1,28.906.726l2.886,4.94H44.453L47.339.726A1.464,1.464,0,0,1,49.869,2.2Z" transform="translate(-10.757 0)" fill="#231815"/>
      </g>
    </g>
  </g>
</svg>
