<svg xmlns="http://www.w3.org/2000/svg" xmlns:xlink="http://www.w3.org/1999/xlink" width="150" height="150" viewBox="0 0 150 150">
  <defs>
    <clipPath id="clip-path">
      <rect id="Rectangle_1410" data-name="Rectangle 1410" width="86.082" height="86.25" fill="none"/>
    </clipPath>
  </defs>
  <g id="Group_467" data-name="Group 467" transform="translate(-333 -861)">
    <circle id="Ellipse_38" data-name="Ellipse 38" cx="75" cy="75" r="75" transform="translate(333 861)" fill="#fff"/>
    <g id="Group_559" data-name="Group 559" transform="translate(364.959 892.875)">
      <g id="Group_558" data-name="Group 558" clip-path="url(#clip-path)">
        <path id="Path_404" data-name="Path 404" d="M68.853,156.837c0,6.5-5.88,11.774-13.134,11.774s-13.134-5.272-13.134-11.774,5.88-11.774,13.134-11.774,13.134,5.272,13.134,11.774" transform="translate(-24.727 -84.227)" fill="#f0d979"/>
        <path id="Path_405" data-name="Path 405" d="M126.433,156.83c0,6.5-5.738,11.774-12.816,11.774S100.8,163.332,100.8,156.83s5.738-11.774,12.817-11.774,12.816,5.272,12.816,11.774" transform="translate(-58.527 -84.223)" fill="#f0d979"/>
        <ellipse id="Ellipse_44" data-name="Ellipse 44" cx="6.5" cy="5.5" rx="6.5" ry="5.5" transform="translate(25.041 67.125)" fill="#fff"/>
        <ellipse id="Ellipse_45" data-name="Ellipse 45" cx="6.5" cy="5.5" rx="6.5" ry="5.5" transform="translate(48.041 67.125)" fill="#fff"/>
        <path id="Path_406" data-name="Path 406" d="M96.443,164.2a1.149,1.149,0,0,1-.819-.354,1.247,1.247,0,0,1,.1-1.847,10.752,10.752,0,0,0,2.527-11.187c-1.275-3.973-4.131-6.486-8.487-7.473a10.272,10.272,0,0,0-6.621.7,23.934,23.934,0,0,0-6.686,4.865l2.6,3.456a23.15,23.15,0,0,1,4.777-3.883,7.184,7.184,0,0,1,3.742-1.12,7.027,7.027,0,0,1,3.438.947,6.828,6.828,0,0,1,0,11.963,7.075,7.075,0,0,1-3.45.948,7.151,7.151,0,0,1-3.776-1.147,23.437,23.437,0,0,1-7.09-6.749,29.107,29.107,0,0,0-8.455-8.282,11.625,11.625,0,0,0-6.239-1.94,12.044,12.044,0,0,0-5.343,1.34,1.8,1.8,0,0,1-.773.263,1.108,1.108,0,0,1-.248-.044,1.689,1.689,0,0,1-.935-.821,1.119,1.119,0,0,1,.621-1.466,14,14,0,0,1,6.7-1.711,14.428,14.428,0,0,1,8.819,3.185c.991.753,1.926,1.532,2.916,2.356q.523.437,1.058.877l.08-.078a25.378,25.378,0,0,1,7.244-5.2,13.574,13.574,0,0,1,5.446-1.142A13.77,13.77,0,0,1,101.023,151.6c.069.332.124.666.18,1l.077.452.007,2.421a.474.474,0,0,1-.012.1c-.072.315-.138.633-.2.95-.146.7-.3,1.429-.516,2.135a12.481,12.481,0,0,1-3.035,5.01,1.5,1.5,0,0,1-1.076.53m-15.824-9.922a21.213,21.213,0,0,0,4.9,3.956,4.539,4.539,0,0,0,2.057.489,4.594,4.594,0,0,0,3.546-1.671,4.391,4.391,0,0,0,.048-5.482,4.594,4.594,0,0,0-3.593-1.745,4.183,4.183,0,0,0-1.921.455,18.227,18.227,0,0,0-5.04,4" transform="translate(-31.71 -81.667)"/>
        <path id="Path_407" data-name="Path 407" d="M78.546,172.785a13.55,13.55,0,0,1-8.011-2.708c-1.108-.8-2.163-1.69-3.183-2.553-.455-.386-.911-.772-1.372-1.15-.026-.021-.052-.044-.078-.067l-.116.11a28.182,28.182,0,0,1-6.245,4.735A13.679,13.679,0,0,1,39.9,162.817a13.121,13.121,0,0,1,3.357-13.171,2.572,2.572,0,0,1,.362-.337,1.308,1.308,0,0,1,.771-.27,1.183,1.183,0,0,1,.839.367,1.151,1.151,0,0,1,.077,1.633c-.16.194-.333.376-.507.56s-.33.346-.481.531A11.208,11.208,0,0,0,59,168.64a27.3,27.3,0,0,0,5.2-4.111l-2.591-3.46-.031.034a23.19,23.19,0,0,1-4.781,3.884,7.127,7.127,0,0,1-3.709,1.045,6.857,6.857,0,0,1-6.858-5.585,6.54,6.54,0,0,1,2.778-6.867,6.64,6.64,0,0,1,7.541-.392,22.618,22.618,0,0,1,7.416,6.929,27.681,27.681,0,0,0,9.185,8.707,11.037,11.037,0,0,0,5.491,1.525,11.983,11.983,0,0,0,5.19-1.264l.315-.162a1.666,1.666,0,0,1,.722-.182,1.146,1.146,0,0,1,1.033.631,1.211,1.211,0,0,1,.084.984,1.288,1.288,0,0,1-.74.746l-.653.28a17.031,17.031,0,0,1-2.681.983,14.158,14.158,0,0,1-3.364.419Zm-25.458-18.1A4.665,4.665,0,0,0,49.893,156a4.4,4.4,0,0,0-.545,5.67,4.561,4.561,0,0,0,3.73,1.936,4.392,4.392,0,0,0,2.05-.507,18.794,18.794,0,0,0,4.927-3.942,18.147,18.147,0,0,0-5.09-4.022,4.146,4.146,0,0,0-1.878-.442" transform="translate(-22.848 -86.535)"/>
        <path id="Path_408" data-name="Path 408" d="M148.207,0H118.667a4.29,4.29,0,0,0-4.287,4.282V7.261H117.3V4.282a1.372,1.372,0,0,1,1.371-1.369h6.81l2.249,3.849h11.42l2.25-3.849h6.81a1.372,1.372,0,0,1,1.372,1.369v57.93a1.372,1.372,0,0,1-1.372,1.369h-14.32l.589.749a8.957,8.957,0,0,1,1.137,1.889l.122.275h12.471a4.289,4.289,0,0,0,4.288-4.281V4.282A4.29,4.29,0,0,0,148.207,0M129.4,3.85l-.547-.937h9.166l-.547.937Z" transform="translate(-66.412)"/>
        <path id="Path_409" data-name="Path 409" d="M2.916,62.212V4.282A1.372,1.372,0,0,1,4.288,2.913H11.1l2.249,3.849h11.42l2.25-3.849h6.81A1.372,1.372,0,0,1,35.2,4.282V7.261h2.916V4.282A4.29,4.29,0,0,0,33.827,0H4.288A4.29,4.29,0,0,0,0,4.282v57.93a4.289,4.289,0,0,0,4.288,4.281h12.2l.135-.224c.38-.632.806-1.271,1.3-1.952l.537-.736H4.288a1.372,1.372,0,0,1-1.372-1.369M15.021,3.85l-.547-.937H23.64l-.547.937Z"/>
        <path id="Path_410" data-name="Path 410" d="M91.017,19.5H61.478a4.289,4.289,0,0,0-4.288,4.281V69.869l.64-.265a15.037,15.037,0,0,1,1.93-.661l.345-.091V23.782a1.372,1.372,0,0,1,1.372-1.369h6.81l2.249,3.85h11.42l2.25-3.85h6.81a1.372,1.372,0,0,1,1.372,1.369V68.839l.346.09a14.685,14.685,0,0,1,1.93.658l.64.266V23.782A4.289,4.289,0,0,0,91.017,19.5M72.211,23.35l-.547-.937H80.83l-.547.937Z" transform="translate(-33.206 -11.323)"/>
      </g>
    </g>
  </g>
</svg>
