<svg xmlns="http://www.w3.org/2000/svg" width="195.184" height="84.5" viewBox="0 0 195.184 84.5">
  <g id="Group_849" data-name="Group 849" transform="translate(-297.816 -7717)">
    <text id="COPYRIGHT_Artribr" data-name="COPYRIGHT @ Artribr" transform="translate(298 7797.5)" fill="#fff" font-size="17" font-family="Helvetica-Bold, Helvetica" font-weight="700" letter-spacing="0.05em"><tspan x="0" y="0">COPYRIGHT @ Artribr</tspan></text>
    <g id="Group_578" data-name="Group 578" transform="translate(-2369.24 -190.368)">
      <g id="Group_577" data-name="Group 577">
        <path id="Path_473" data-name="Path 473" d="M15.962,150.588h.094l5.591,15.589H10.278Zm-2.349-4.026L.506,179.988h4.6l3.758-10.065H23.056l3.665,10.065h4.933L18.546,146.562Z" transform="translate(2666.734 7760.806)" fill="#fff"/>
        <path id="Path_448" data-name="Path 448" d="M75.44,165.388H79.2v5.1h.094c1.926-3.933,4.6-5.8,8.926-5.665v4.214c-6.436,0-8.785,3.6-8.785,9.784v10.767H75.44Z" transform="translate(2627.317 7751.203)" fill="#fff"/>
        <path id="Path_449" data-name="Path 449" d="M115.386,157.967h4.839v3.511h-4.839v15.028c0,1.872.517,2.154,3.007,2.154h1.832v3.511h-3.054c-4.134,0-5.779-.843-5.779-5.29v-15.4h-4.134v-3.511h4.134v-7.256h3.994Z" transform="translate(2610.58 7758.624)" fill="#fff"/>
        <path id="Path_450" data-name="Path 450" d="M147.6,165.388h3.759v5.1h.094c1.926-3.933,4.6-5.8,8.926-5.665v4.214c-6.436,0-8.785,3.6-8.785,9.784v10.767H147.6Z" transform="translate(2589.36 7751.203)" fill="#fff"/>
        <path id="Path_451" data-name="Path 451" d="M189.356,151.431h-3.994v-4.869h3.994Zm-3.994,4.354h3.994v24.2h-3.994Z" transform="translate(2569.495 7760.806)" fill="#fff"/>
        <path id="Path_452" data-name="Path 452" d="M211.133,146.563h3.993v12.5h.094c1.315-2.668,4.369-3.839,7.751-3.839,7.47,0,11.181,5.9,11.181,12.734,0,6.882-3.664,12.593-11.087,12.593-2.442,0-6.107-.937-7.845-3.792h-.094v3.23h-3.993Zm11.275,12.172c-5.4,0-7.422,4.635-7.422,9.129,0,4.728,2.161,9.176,7.657,9.176,5.45,0,7.282-4.635,7.282-9.363,0-4.541-2.349-8.941-7.516-8.941" transform="translate(2555.938 7760.805)" fill="#fff"/>
        <path id="Path_453" data-name="Path 453" d="M270.1,165.388h3.759v5.1h.094c1.926-3.933,4.6-5.8,8.926-5.665v4.214c-6.436,0-8.786,3.6-8.786,9.784v10.767H270.1Z" transform="translate(2524.921 7751.203)" fill="#fff"/>
      </g>
      <path id="Path_454" data-name="Path 454" d="M4.491,239.512H1.5l.861-3.39.546.205-.588,2.638H4.491v-3.677h-3.1v-.546H6.746v.546H5.092v3.677" transform="translate(2666.27 7714.421)" fill="#fff" stroke="#fff" stroke-width="0.3"/>
      <path id="Path_455" data-name="Path 455" d="M6.488,243.427v6.381a1.112,1.112,0,0,1-1.244,1.271,5.093,5.093,0,0,1-1.148-.123l-.055-.656a4.238,4.238,0,0,0,1.2.178q.642,0,.642-.725v-5.673H5.777" transform="translate(2664.874 7709.853)" fill="#fff" stroke="#fff" stroke-width="0.3"/>
      <path id="Subtraction_18" data-name="Subtraction 18" d="M.6,10.419H0V0L.641.072h5.3V.619h-2.5V2.712h2.24v.543H3.443v2.3h2.24V6.1H3.443V8.725h2.9v.546H.6v1.147ZM.6,6.1V8.722H2.843V6.1Zm0-2.843v2.3H2.843v-2.3ZM.6.619V2.708H2.843V.619Z" transform="translate(2673.674 7950.787)" fill="#fff" stroke="#fff" stroke-miterlimit="10" stroke-width="0.3"/>
      <path id="Path_458" data-name="Path 458" d="M35.17,234.925H37.1v-1.914h.6v1.914h1.749v.546H37.7v1.982h2.009V238h-1.9v2.023H39.5v.546H37.808v2.9a5.046,5.046,0,0,0,1.968.847,24,24,0,0,0,4.757.355q1.53,0,2.679-.109l-.055.71q-1.312.109-2.624.109a26.916,26.916,0,0,1-4.853-.328,5.46,5.46,0,0,1-2.35-1.08,6.832,6.832,0,0,1-1.408-1.681q-.082.438-.192.82a14.837,14.837,0,0,1-.929,2.761l-.492-.451a15.354,15.354,0,0,0,.889-2.706,20.365,20.365,0,0,0,.465-3.295l.6.1q-.054,1-.191,1.886a7.284,7.284,0,0,0,1.135,1.544V238H34.569v-.547H37.1v-1.982H35.17Zm3.937-1.312h5.412v.574H43v10.1h-.6V241.8a23.812,23.812,0,0,1-3.007,1.23l-.342-.588q.56-.164,1.053-.328v-7.928h-1Zm1.6,2.569H42.4v-1.995H40.706Zm0,2.693H42.4v-2.146H40.706Zm0,3.007a12.75,12.75,0,0,0,1.694-.738v-1.722H40.706Zm2.788-6.848h2.952A19.2,19.2,0,0,1,46,238.752q-.11.533-.232,1a33.438,33.438,0,0,1,1.394,3.171l-.656.26q-.465-1.34-1.025-2.556A6.909,6.909,0,0,1,45,241.718a5.372,5.372,0,0,1-1.5,1.954l-.383-.491a6.56,6.56,0,0,0,1.326-1.777,7.479,7.479,0,0,0,.643-1.627,25.675,25.675,0,0,0-1.64-2.871l.479-.341q.751,1.121,1.394,2.323a1.525,1.525,0,0,0,.041-.191,21.993,21.993,0,0,0,.424-3.117H43.495Z" transform="translate(2648.953 7715.332)" fill="#fff" stroke="#fff" stroke-width="0.3"/>
      <path id="Path_459" data-name="Path 459" d="M68.47,236.684h1.8v-3.663h.6v3.663H72.53v.547H70.876v8.488h-.6v-8.488h-1.8Zm3.459,5.1h6.656v-.874h.6v.874h2.091v.547H79.186v2.133q0,1.257-1.135,1.257a6.758,6.758,0,0,1-1.53-.164l-.055-.669a5.535,5.535,0,0,0,1.585.232q.533,0,.533-.711v-2.078H71.929Zm.26-7.217h4.046v-1.64h.6v1.64h4.224v.547H76.835v.861H80.28v3.786a.858.858,0,0,1-.971.971,3.854,3.854,0,0,1-.984-.151v-.6a2.916,2.916,0,0,0,.984.2q.355,0,.369-.478H76.835v1.258h-.6V239.7H73.569v1.421h-.6v-5.153h3.268v-.861H72.188Zm1.38,3.007h2.666V236.52H73.569Zm0,1.585h2.666v-1.039H73.569Zm.752,3.444a9.943,9.943,0,0,1,1.914,1.626l-.37.506a11.827,11.827,0,0,0-1.859-1.708Zm2.515-5.03h2.843V236.52H76.835Zm0,1.585h2.843v-1.039H76.835Zm1.326-6.192a13.657,13.657,0,0,1,2.119.943l-.206.547a11.366,11.366,0,0,0-2.146-1.039Z" transform="translate(2630.983 7715.377)" fill="#fff" stroke="#fff" stroke-width="0.3"/>
      <path id="Path_460" data-name="Path 460" d="M105.707,243.537h6.848v.6h-3.062v2.569h4.032v.6h-4.032v2.843h5.673v.6H103.15v-.6h5.673v-2.843h-4.046v-.6h4.046v-2.569h-3.117Z" transform="translate(2612.74 7709.794)" fill="#fff" stroke="#fff" stroke-width="0.3"/>
      <path id="Path_461" data-name="Path 461" d="M138.6,245.85v-5.731h-1.8v-.6h1.8V236.5h-1.982v-.6h4.538v.6H139.2v3.021h1.572v.6H139.2v6.046" transform="translate(2595.134 7713.814)" fill="#fff" stroke="#fff" stroke-width="0.3"/>
      <path id="Path_462" data-name="Path 462" d="M145.271,235.713h3.677v-2.788h.656v2.788h3.923v.6H149.6v8.147a1.063,1.063,0,0,1-1.2,1.2,6.814,6.814,0,0,1-1.257-.11l-.068-.724a5.148,5.148,0,0,0,1.326.178q.547,0,.546-.724v-7.969h-3.677Z" transform="translate(2590.584 7715.377)" fill="#fff" stroke="#fff" stroke-width="0.3"/>
      <path id="Path_463" data-name="Path 463" d="M146.916,241.777a11.128,11.128,0,0,1,1.708,2.46l-.546.4a10.6,10.6,0,0,0-1.654-2.515Z" transform="translate(2589.977 7710.72)" fill="#fff" stroke="#fff" stroke-width="0.3"/>
      <path id="Path_464" data-name="Path 464" d="M156.627,233.732a12.443,12.443,0,0,1,1.955,1.517l-.424.451a10.544,10.544,0,0,0-1.927-1.6Z" transform="translate(2584.819 7714.952)" fill="#fff" stroke="#fff" stroke-width="0.3"/>
      <path id="Path_465" data-name="Path 465" d="M158.415,241.777l.533.288a10.2,10.2,0,0,1-1.75,2.665l-.478-.437a9.663,9.663,0,0,0,1.695-2.515" transform="translate(2584.561 7710.72)" fill="#fff" stroke="#fff" stroke-width="0.3"/>
      <path id="Path_466" data-name="Path 466" d="M170.067,234.925h4.579a13.922,13.922,0,0,0,.833-1.914l.656.164a11.349,11.349,0,0,1-.752,1.75h7.436v.6h-7.75a15.3,15.3,0,0,1-1.08,1.626.609.609,0,0,1-.1.123h7.012v7.286q0,1.093-1.2,1.093a5.95,5.95,0,0,1-1.53-.232l-.055-.642a5.678,5.678,0,0,0,1.585.273q.533,0,.533-.6v-1.53h-6.219v2.952h-.656v-7.928a21.435,21.435,0,0,1-3.021,2.953l-.424-.437a21.78,21.78,0,0,0,3.239-3.24,14.879,14.879,0,0,0,1.162-1.694h-4.251Zm3.95,4.756h6.219v-1.8h-6.219Zm0,2.638h6.219v-2.037h-6.219Z" transform="translate(2577.619 7715.332)" fill="#fff" stroke="#fff" stroke-width="0.3"/>
      <path id="Path_467" data-name="Path 467" d="M210.1,234.28l-1.749,3.978a6.176,6.176,0,0,1,1.162,1.831,4.973,4.973,0,0,1,.424,1.914q-.014,1.435-1.3,1.435a3.807,3.807,0,0,1-1.148-.232l-.109-.656a3.592,3.592,0,0,0,1.257.287q.628,0,.656-.833a4.423,4.423,0,0,0-.355-1.668,6.448,6.448,0,0,0-1.244-1.94l1.531-3.54h-2.5v11.7h-.656V234.28Zm6.4.164v5.3h-2.774a9.5,9.5,0,0,0,.711,2.214,8.492,8.492,0,0,0,1.2-.628,8.1,8.1,0,0,0,1.353-1.039l.506.4a9.973,9.973,0,0,1-1.436,1.135,14.925,14.925,0,0,1-1.311.738q.245.424.519.806a9.672,9.672,0,0,0,2.775,2.624l-.451.547a10.305,10.305,0,0,1-2.925-2.9,10.064,10.064,0,0,1-1.6-3.9h-1.585v5.181a18.305,18.305,0,0,0,2.556-1.189l.11.6a30.337,30.337,0,0,1-4.525,1.927l-.328-.6q.806-.247,1.531-.492v-10.73Zm-5.016,2.3h4.361v-1.749h-4.361Zm0,2.46h4.361v-1.914h-4.361Z" transform="translate(2558.604 7714.664)" fill="#fff" stroke="#fff" stroke-width="0.3"/>
      <path id="Path_468" data-name="Path 468" d="M245.212,241.692l.724.273a39.58,39.58,0,0,1-3.4,6.711q2.925-.151,6.574-.642a24.891,24.891,0,0,0-1.858-2.3l.492-.506a30.7,30.7,0,0,1,3.608,4.716l-.6.588q-.547-.93-1.148-1.818a74.307,74.307,0,0,1-9.295.779l-.164-.752q.711,0,1.476-.027a37.514,37.514,0,0,0,3.595-7.026" transform="translate(2540.68 7710.765)" fill="#fff" stroke="#fff" stroke-width="0.3"/>
      <path id="Path_469" data-name="Path 469" d="M273.381,234.194h11.057v11.153q0,.874-1.148.874a10.48,10.48,0,0,1-2.405-.327v-.657a8.454,8.454,0,0,0,2.405.383q.437,0,.437-.492V234.836H273.381Zm.341,2.392h8.625v.656h-8.625Zm7.108,2.46v5.044h-.71v-.82h-4.592V244.4H274.8v-5.358Zm-5.3,3.554h4.592v-2.9h-4.592Z" transform="translate(2523.195 7714.709)" fill="#fff" stroke="#fff" stroke-width="0.3"/>
      <rect id="Rectangle_1429" data-name="Rectangle 1429" width="8.493" height="0.601" transform="matrix(0.784, -0.62, 0.62, 0.784, 2715.4, 7954.031)" fill="#fff" stroke="#fff" stroke-width="0.3"/>
      <rect id="Rectangle_1430" data-name="Rectangle 1430" width="0.601" height="8.493" transform="matrix(0.62, -0.784, 0.784, 0.62, 2721.671, 7949.234)" fill="#fff" stroke="#fff" stroke-width="0.3"/>
      <path id="Path_470" data-name="Path 470" d="M9.334,233.42l-8.5,8.957-.3-.41,8.557-9.041Z" transform="translate(2666.721 7715.376)" fill="#fff" stroke="#fff" stroke-width="0.3"/>
      <path id="Path_471" data-name="Path 471" d="M17.977,233.4l2.45,2.634.274-.472-2.45-2.634Z" transform="translate(2657.544 7715.376)" fill="#fff" stroke="#fff" stroke-width="0.3"/>
      <rect id="Rectangle_1431" data-name="Rectangle 1431" width="8.493" height="0.601" transform="matrix(0.784, -0.62, 0.62, 0.784, 2779.772, 7954.031)" fill="#fff" stroke="#fff" stroke-width="0.3"/>
      <rect id="Rectangle_1432" data-name="Rectangle 1432" width="0.601" height="8.493" transform="matrix(0.62, -0.784, 0.784, 0.62, 2786.043, 7949.234)" fill="#fff" stroke="#fff" stroke-width="0.3"/>
      <rect id="Rectangle_1433" data-name="Rectangle 1433" width="0.601" height="7.074" transform="translate(2739.576 7955.922) rotate(-51.663)" fill="#fff" stroke="#fff" stroke-width="0.3"/>
      <rect id="Rectangle_1434" data-name="Rectangle 1434" width="7.074" height="0.601" transform="translate(2734.237 7959.838) rotate(-38.337)" fill="#fff" stroke="#fff" stroke-width="0.3"/>
      <rect id="Rectangle_1435" data-name="Rectangle 1435" width="2.97" height="0.61" transform="translate(2731.755 7959.674)" fill="#fff" stroke="#fff" stroke-width="0.3"/>
    </g>
  </g>
</svg>
