<svg xmlns="http://www.w3.org/2000/svg" width="28" height="21" viewBox="0 0 28 21">
  <path id="envelope-solid" d="M27.47,70.934a.329.329,0,0,1,.53.257V82.375A2.626,2.626,0,0,1,25.375,85H2.625A2.626,2.626,0,0,1,0,82.375V71.2a.327.327,0,0,1,.53-.257c1.225.952,2.849,2.16,8.427,6.212,1.154.842,3.1,2.614,5.042,2.6,1.952.016,3.938-1.794,5.048-2.6C24.626,73.1,26.245,71.886,27.47,70.934ZM14,78c1.269.022,3.1-1.6,4.014-2.264C25.271,70.47,25.823,70.01,27.5,68.7a1.309,1.309,0,0,0,.5-1.034V66.625A2.626,2.626,0,0,0,25.375,64H2.625A2.626,2.626,0,0,0,0,66.625v1.039A1.317,1.317,0,0,0,.5,68.7C2.177,70,2.729,70.47,9.986,75.736,10.9,76.4,12.731,78.022,14,78Z" transform="translate(0 -64)" fill="#7b7b7b"/>
</svg>
