<svg xmlns="http://www.w3.org/2000/svg" width="28" height="28" viewBox="0 0 28 28">
  <path id="headset-solid" d="M10.5,11.375a1.75,1.75,0,0,0-1.75-1.75H7.875a3.5,3.5,0,0,0-3.5,3.5V15.75a3.5,3.5,0,0,0,3.5,3.5H8.75A1.75,1.75,0,0,0,10.5,17.5Zm9.625,7.875a3.5,3.5,0,0,0,3.5-3.5V13.125a3.5,3.5,0,0,0-3.5-3.5H19.25a1.75,1.75,0,0,0-1.75,1.75V17.5a1.75,1.75,0,0,0,1.75,1.75ZM14,0C6.19,0,.25,6.5,0,14v.875a.875.875,0,0,0,.875.875H1.75a.875.875,0,0,0,.875-.875V14a11.375,11.375,0,0,1,22.75,0h-.007c0,.133.007,9.063.007,9.063a2.312,2.312,0,0,1-2.312,2.312H17.5a2.625,2.625,0,0,0-2.625-2.625h-1.75a2.625,2.625,0,0,0,0,5.25h9.938A4.937,4.937,0,0,0,28,23.063V14C27.75,6.5,21.81,0,14,0Z" fill="#969696"/>
</svg>
