<svg xmlns="http://www.w3.org/2000/svg" width="17.039" height="17.039" viewBox="0 0 17.039 17.039">
  <path id="linkedin-brands" d="M15.822,32H1.213A1.222,1.222,0,0,0,0,33.228V47.811a1.222,1.222,0,0,0,1.213,1.228H15.822a1.226,1.226,0,0,0,1.217-1.228V33.228A1.226,1.226,0,0,0,15.822,32ZM5.15,46.6H2.624V38.473H5.154V46.6ZM3.887,37.363A1.464,1.464,0,1,1,5.351,35.9,1.465,1.465,0,0,1,3.887,37.363ZM14.616,46.6H12.091V42.649c0-.943-.019-2.157-1.312-2.157-1.316,0-1.518,1.027-1.518,2.088V46.6H6.736V38.473H9.158v1.111h.034a2.66,2.66,0,0,1,2.392-1.312c2.556,0,3.031,1.685,3.031,3.876Z" transform="translate(0 -32)" fill="#fff"/>
</svg>
