<svg xmlns="http://www.w3.org/2000/svg" xmlns:xlink="http://www.w3.org/1999/xlink" width="233.29" height="47.805" viewBox="0 0 233.29 47.805">
  <defs>
    <clipPath id="clip-path">
      <rect id="Rectangle_1440" data-name="Rectangle 1440" width="233.29" height="47.805" transform="translate(0 0)" fill="none"/>
    </clipPath>
  </defs>
  <g id="Group_598" data-name="Group 598" transform="translate(0 0)">
    <path id="Path_477" data-name="Path 477" d="M85.9,23.82,84.245,41.995h-.068L82.421,23.82H78.368L76.61,41.995h-.067L74.888,23.82H71.306l2.4,23.648h4.932l1.688-15.946h.068l1.689,15.946h4.629l2.4-23.648Z" fill="#474645"/>
    <rect id="Rectangle_1437" data-name="Rectangle 1437" width="3.717" height="23.648" transform="translate(91.001 23.82)" fill="#474645"/>
    <path id="Path_478" data-name="Path 478" d="M105.832,23.82V37.975h-.068L102.149,23.82H97.487V47.468H100.8V30.2h.069l4.458,17.263h3.818V23.82Z" fill="#474645"/>
    <path id="Path_479" data-name="Path 479" d="M120.256,23.82V37.975h-.068L116.573,23.82h-4.662V47.468h3.31V30.2h.069l4.459,17.263h3.817V23.82Z" fill="#474645"/>
    <path id="Path_480" data-name="Path 480" d="M126.336,23.82V47.468h10.135V44.089h-6.418V36.827h5.1v-3.38h-5.1V27.2h6.418V23.82Z" fill="#474645"/>
    <g id="Group_597" data-name="Group 597">
      <g id="Group_596" data-name="Group 596" clip-path="url(#clip-path)">
        <path id="Path_481" data-name="Path 481" d="M138.6,23.819H144.1a5.691,5.691,0,0,1,4.19,1.335,5.637,5.637,0,0,1,1.317,4.1v1.453q0,3.682-2.432,4.662v.068a2.906,2.906,0,0,1,1.909,1.655,8.352,8.352,0,0,1,.556,3.344V44.6a15.549,15.549,0,0,0,.069,1.638,4.078,4.078,0,0,0,.337,1.233h-3.783a5.418,5.418,0,0,1-.271-1.08,16.337,16.337,0,0,1-.067-1.825V40.238a3.665,3.665,0,0,0-.524-2.263,2.215,2.215,0,0,0-1.807-.643h-1.284V47.467H138.6Zm5.067,10.135a2.229,2.229,0,0,0,1.673-.574,2.717,2.717,0,0,0,.556-1.925V29.631a3,3,0,0,0-.456-1.86A1.725,1.725,0,0,0,144,27.2h-1.689v6.757Z" fill="#474645"/>
        <path id="Path_482" data-name="Path 482" d="M158.784,46.285a6.1,6.1,0,0,1-1.4-4.291v-12.7a6.093,6.093,0,0,1,1.4-4.291,6.212,6.212,0,0,1,8.142,0,6.1,6.1,0,0,1,1.4,4.291v2.5h-3.513V29.055q0-2.195-1.858-2.2t-1.859,2.2v13.21q0,2.163,1.859,2.162t1.858-2.162V38.65h3.513v3.344a6.1,6.1,0,0,1-1.4,4.291,6.212,6.212,0,0,1-8.142,0" fill="#e0364e"/>
        <path id="Path_483" data-name="Path 483" d="M173.428,23.819h5.034l3.851,23.648H178.6l-.677-4.695v.067H173.7l-.676,4.628h-3.446Zm4.054,15.811-1.655-11.688h-.068L174.137,39.63Z" fill="#e0364e"/>
        <path id="Path_484" data-name="Path 484" d="M185.454,27.2h-3.885V23.819h11.487V27.2h-3.885v20.27h-3.717Z" fill="#e0364e"/>
        <path id="Path_485" data-name="Path 485" d="M195.877,46.285a6.1,6.1,0,0,1-1.4-4.291v-12.7a6.1,6.1,0,0,1,1.4-4.291,6.212,6.212,0,0,1,8.142,0,6.1,6.1,0,0,1,1.4,4.291v2.5h-3.513V29.055q0-2.195-1.858-2.2t-1.858,2.2v13.21q0,2.163,1.858,2.162t1.858-2.162V38.65h3.513v3.344a6.1,6.1,0,0,1-1.4,4.291,6.212,6.212,0,0,1-8.142,0" fill="#e0364e"/>
        <path id="Path_486" data-name="Path 486" d="M207.65,23.819h3.717v9.628h3.986V23.819h3.716V47.466h-3.716V36.826h-3.986v10.64H207.65Z" fill="#e0364e"/>
        <path id="Path_487" data-name="Path 487" d="M221.838,23.819h5.506a5.691,5.691,0,0,1,4.19,1.335,5.637,5.637,0,0,1,1.317,4.1v1.453q0,3.682-2.432,4.662v.068a2.906,2.906,0,0,1,1.909,1.655,8.351,8.351,0,0,1,.557,3.344V44.6a15.591,15.591,0,0,0,.068,1.638,4.078,4.078,0,0,0,.337,1.233h-3.783a5.418,5.418,0,0,1-.271-1.08,16.338,16.338,0,0,1-.067-1.825V40.238a3.665,3.665,0,0,0-.524-2.263,2.215,2.215,0,0,0-1.807-.643h-1.284V47.467h-3.716ZM226.9,33.954a2.229,2.229,0,0,0,1.673-.574,2.717,2.717,0,0,0,.557-1.925V29.631a3,3,0,0,0-.457-1.86,1.725,1.725,0,0,0-1.435-.574h-1.689v6.757Z" fill="#e0364e"/>
        <rect id="Rectangle_1438" data-name="Rectangle 1438" width="3.767" height="3.767" transform="translate(90.977 16.649)" fill="#ffc412"/>
        <path id="Path_488" data-name="Path 488" d="M1.174,21.116l11.291-3.653L9.726,23.435l2.645,14.342,6.46-23.025L26.356,34.5,23.4,46.784l-14.2-.55Z" fill="#f3b2b3"/>
        <path id="Path_489" data-name="Path 489" d="M45.411,7.154l8.622,14.638L48,32.625,56.461,46.87,26.356,34.5,18.831,14.752l16.89-5.333L40.3,19.578Z" fill="#fadede"/>
        <path id="Path_490" data-name="Path 490" d="M12.465,17.463l3.7,8.46L12.371,37.777,9.726,23.435Z" fill="#fadddd"/>
        <path id="Path_491" data-name="Path 491" d="M27.128,34.74,56.461,46.871H30.6Z" fill="#f3b2b3"/>
        <path id="Path_492" data-name="Path 492" d="M63.858,1.329,55.7,45.956H31.227L28.885,39.8l-1.317-3.532-.048-.129-.928-2.488-.8,2.531-3.064,9.691-.026.08H9.932L1.174,21.116l11.291-3.653,2.38,7,.947,2.774.8-2.827,2.528-8.939,16.049-5.164,3.573,6.451,1.048,1.893.99,1.787.672-1.929L45.411,7.154ZM65.03,0,44.7,6.42l-4.11,11.789-1.048-1.892L35.6,9.208,18.374,14.752l-2.662,9.411v.006l-2.67-7.852L0,20.535,9.285,46.87H23.372l.025-.08h0l0-.006,3.264-10.323.049.129,1.317,3.532L30.6,46.87H56.462Z" fill="#e0364e"/>
        <rect id="Rectangle_1439" data-name="Rectangle 1439" width="0.548" height="13.022" transform="translate(12.406 38.162) rotate(-50.025)" fill="#e0364e"/>
        <path id="Path_493" data-name="Path 493" d="M9.722,46.4,9.2,46.234l2.764-8.71L.532,20.543l15.632,5.564-3.6,11.331.243.36-.454.306ZM1.917,21.618,12.176,36.857l3.305-10.411Z" fill="#e0364e"/>
        <path id="Path_494" data-name="Path 494" d="M48.214,33.427,31.727,22.42l.305-.456L48,32.625,63.612,1.207l.491.243Z" fill="#e0364e"/>
        <path id="Path_495" data-name="Path 495" d="M31.622,46.349l-.345-.426,15.238-12.34-19.77,1.388-.038-.548,21.505-1.508Z" fill="#e0364e"/>
        <path id="Path_496" data-name="Path 496" d="M12.794,38.126l-.424-.348L35.71,9.415,26.34,36.564l-.519-.179L34.2,12.115Z" fill="#e0364e"/>
        <path id="Path_497" data-name="Path 497" d="M56.508,46.678,26.625,34.953l.2-.511L55.247,45.595,40.467,20.061l.474-.274Z" fill="#e0364e"/>
        <path id="Path_498" data-name="Path 498" d="M12.644,38.219l-.123-.535L26.356,34.5,18.928,15.256l.512-.2L27.1,34.893Z" fill="#e0364e"/>
        <path id="Path_499" data-name="Path 499" d="M48.574,33.326,44.8,6.04,59.493,29.362ZM45.691,8.484l3.333,24.095,9.642-3.5Z" fill="#e0364e"/>
        <path id="Path_500" data-name="Path 500" d="M12.114,38.127,9.44,22.749l2.9-5.663.489.25-2.815,5.5,2.642,15.2Z" fill="#e0364e"/>
        <path id="Path_501" data-name="Path 501" d="M13.99,38.08a1.605,1.605,0,1,1-1.6-1.606,1.606,1.606,0,0,1,1.6,1.606" fill="#e0364e"/>
        <path id="Path_502" data-name="Path 502" d="M33.475,22.193a2.052,2.052,0,1,1-2.053-2.053,2.053,2.053,0,0,1,2.053,2.053" fill="#e0364e"/>
        <path id="Path_503" data-name="Path 503" d="M50.457,33.026a2.35,2.35,0,1,1-2.35-2.35,2.35,2.35,0,0,1,2.35,2.35" fill="#e0364e"/>
        <path id="Path_504" data-name="Path 504" d="M55.467,21.358a1.434,1.434,0,1,1-1.434-1.434,1.434,1.434,0,0,1,1.434,1.434" fill="#e0364e"/>
        <path id="Path_505" data-name="Path 505" d="M11.16,23.435A1.434,1.434,0,1,1,9.726,22a1.434,1.434,0,0,1,1.434,1.434" fill="#e0364e"/>
        <path id="Path_506" data-name="Path 506" d="M49.713,13.142a.914.914,0,1,1-.914-.914.914.914,0,0,1,.914.914" fill="#e0364e"/>
        <path id="Path_507" data-name="Path 507" d="M28.647,19.578a.914.914,0,1,1-.914-.914.914.914,0,0,1,.914.914" fill="#e0364e"/>
        <path id="Path_508" data-name="Path 508" d="M29.561,28.673a.914.914,0,1,1-.914-.914.914.914,0,0,1,.914.914" fill="#e0364e"/>
        <path id="Path_509" data-name="Path 509" d="M45.758,41.872a.914.914,0,1,1-.914-.914.914.914,0,0,1,.914.914" fill="#e0364e"/>
        <path id="Path_510" data-name="Path 510" d="M9.446,32.112a.914.914,0,1,1-.914-.914.914.914,0,0,1,.914.914" fill="#e0364e"/>
      </g>
    </g>
  </g>
</svg>
