<svg xmlns="http://www.w3.org/2000/svg" width="77.423" height="55.803" viewBox="0 0 77.423 55.803">
  <g id="Group_600" data-name="Group 600" transform="translate(-622.58 215.545)">
    <path id="Path_511" data-name="Path 511" d="M676.531-207.055l22.822-7.431-9.976,53.416H673.619Z" fill="#fff" stroke="#fff" stroke-width="1"/>
    <g id="Group_599" data-name="Group 599">
      <path id="Path_234" data-name="Path 234" d="M2.569,39.858l13.443-4.349-3.261,7.11L15.9,59.695l7.692-27.414L32.55,55.793,29.029,70.418l-16.9-.655Z" transform="translate(621.409 -230.262)" fill="#f3b2b3"/>
      <path id="Path_235" data-name="Path 235" d="M66.77,30.447l-5.454-12.1L41.206,24.7l8.959,23.512L86.008,62.94,75.935,45.98l7.182-13.339L72.852,15.655Z" transform="translate(603.794 -222.682)" fill="#fadede"/>
      <path id="Path_236" data-name="Path 236" d="M24.543,38.214l4.4,10.073L24.431,62.4,21.282,45.323Z" transform="translate(612.877 -232.967)" fill="#fadddd"/>
      <path id="Path_237" data-name="Path 237" d="M63.492,90.461H94.286L59.363,76.018Z" transform="translate(595.516 -250.202)" fill="#f3b2b3"/>
      <path id="Path_238" data-name="Path 238" d="M49.352,22.038l4.713-13.52L76.028,1.582,66.315,54.714H37.178L34.39,47.389l-1.569-4.205-.057-.154-1.1-2.961-.953,3.014L27.058,54.619l-.03.1h-15.2L1.4,25.141,14.84,20.792l2.834,8.334,1.128,3.3.952-3.365,3.01-10.643,19.107-6.148,4.254,7.68,1.248,2.253,1.178,2.128ZM53.218,7.644,48.325,21.679l-1.248-2.253L42.39,10.962l-20.514,6.6-3.169,11.2,0,.008-3.178-9.35L0,24.449,11.055,55.8H27.826l.03-.1h0l0-.007,3.886-12.29.058.155,1.568,4.2L36.428,55.8H67.222L77.423,0Z" transform="translate(622.58 -215.545)" fill="#e0364e"/>
      <rect id="Rectangle_1298" data-name="Rectangle 1298" width="0.653" height="15.503" transform="translate(637.351 -170.11) rotate(-50.026)" fill="#e0364e"/>
      <path id="Path_239" data-name="Path 239" d="M12.107,75.739l-.622-.2,3.292-10.369L1.165,44.954l18.61,6.624L15.494,65.068l.288.429-.54.364ZM2.814,46.234,15.028,64.377l3.935-12.4Z" transform="translate(622.049 -236.04)" fill="#e0364e"/>
      <path id="Path_240" data-name="Path 240" d="M89.056,41,69.427,27.9l.362-.543L88.8,40.047,107.388,2.641l.584.29Z" transform="translate(590.927 -216.749)" fill="#e0364e"/>
      <path id="Path_241" data-name="Path 241" d="M64.292,88.019l-.411-.507L82.024,72.82,58.486,74.473l-.046-.652,25.6-1.8Z" transform="translate(595.936 -248.382)" fill="#e0364e"/>
      <path id="Path_242" data-name="Path 242" d="M27.574,54.784l-.5-.415L54.858,20.6,43.7,52.924l-.618-.213,9.973-28.9Z" transform="translate(610.239 -224.937)" fill="#e0364e"/>
      <path id="Path_243" data-name="Path 243" d="M93.841,75.313,58.263,61.353l.238-.608L92.339,74.023l-17.6-30.4.565-.328Z" transform="translate(596.017 -235.284)" fill="#e0364e"/>
      <path id="Path_244" data-name="Path 244" d="M27.545,60.526,27.4,59.89,43.87,56.1,35.027,33.187l.609-.235,9.115,23.615Z" transform="translate(610.089 -230.568)" fill="#e0364e"/>
      <path id="Path_245" data-name="Path 245" d="M102.525,45.7,98.032,13.217l17.493,27.767ZM99.093,16.127l3.968,28.687,11.481-4.167Z" transform="translate(577.886 -221.571)" fill="#e0364e"/>
      <path id="Path_246" data-name="Path 246" d="M23.84,62.439,20.656,44.13l3.451-6.742.581.3-3.352,6.548,3.147,18.094Z" transform="translate(613.163 -232.59)" fill="#e0364e"/>
      <path id="Path_247" data-name="Path 247" d="M27.409,81.725A1.912,1.912,0,1,1,25.5,79.814a1.912,1.912,0,0,1,1.911,1.911" transform="translate(611.827 -251.933)" fill="#e0364e"/>
      <path id="Path_248" data-name="Path 248" d="M69.156,46.515a2.444,2.444,0,1,1-2.444-2.444,2.444,2.444,0,0,1,2.444,2.444" transform="translate(593.279 -235.637)" fill="#e0364e"/>
      <path id="Path_249" data-name="Path 249" d="M105.723,69.925a2.8,2.8,0,1,1-2.8-2.8,2.8,2.8,0,0,1,2.8,2.8" transform="translate(576.93 -246.149)" fill="#e0364e"/>
      <path id="Path_250" data-name="Path 250" d="M118.514,45.305a1.707,1.707,0,1,1-1.707-1.707,1.707,1.707,0,0,1,1.707,1.707" transform="translate(570.105 -235.422)" fill="#e0364e"/>
      <path id="Path_251" data-name="Path 251" d="M21.559,49.85a1.707,1.707,0,1,1-1.707-1.707,1.707,1.707,0,0,1,1.707,1.707" transform="translate(614.308 -237.494)" fill="#e0364e"/>
      <path id="Path_252" data-name="Path 252" d="M106.959,27.846a1.088,1.088,0,1,1-1.088-1.088,1.088,1.088,0,0,1,1.088,1.088" transform="translate(574.808 -227.744)" fill="#e0364e"/>
      <path id="Path_253" data-name="Path 253" d="M60.863,41.93a1.088,1.088,0,1,1-1.088-1.088,1.088,1.088,0,0,1,1.088,1.088" transform="translate(595.824 -234.165)" fill="#e0364e"/>
      <path id="Path_254" data-name="Path 254" d="M62.863,61.831a1.088,1.088,0,1,1-1.088-1.088,1.088,1.088,0,0,1,1.088,1.088" transform="translate(594.912 -243.238)" fill="#e0364e"/>
      <path id="Path_255" data-name="Path 255" d="M98.305,90.713a1.088,1.088,0,1,1-1.088-1.088,1.088,1.088,0,0,1,1.088,1.088" transform="translate(578.754 -256.406)" fill="#e0364e"/>
      <path id="Path_256" data-name="Path 256" d="M18.845,69.357a1.088,1.088,0,1,1-1.088-1.088,1.088,1.088,0,0,1,1.088,1.088" transform="translate(614.981 -246.669)" fill="#e0364e"/>
    </g>
  </g>
</svg>
