<svg id="Group_44" data-name="Group 44" xmlns="http://www.w3.org/2000/svg" xmlns:xlink="http://www.w3.org/1999/xlink" width="89.013" height="64.156" viewBox="0 0 89.013 64.156">
  <defs>
    <clipPath id="clip-path">
      <rect id="Rectangle_39" data-name="Rectangle 39" width="89.013" height="64.156" fill="none"/>
    </clipPath>
  </defs>
  <path id="Path_37" data-name="Path 37" d="M99.37,10.5l2.727,53.65,12.463.45,10.53-62.71Z" transform="translate(-37.211 -0.708)" fill="#fff"/>
  <path id="Path_38" data-name="Path 38" d="M17.895,63.8,14.274,44.166l3.749-8.174-15.456,5L13.555,75.374l19.435.753,4.048-16.814-10.3-27.032Z" transform="translate(-0.962 -12.088)" fill="#f3b2b3"/>
  <path id="Path_39" data-name="Path 39" d="M70.6,32.661l-6.27-13.906-23.12,7.3,10.3,27.032L92.715,70.019,81.134,50.52l8.258-15.337-11.8-19.528Z" transform="translate(-15.43 -5.863)" fill="#fadede"/>
  <path id="Path_40" data-name="Path 40" d="M25.031,38.214l5.063,11.58L24.9,66.02,21.282,46.388Z" transform="translate(-7.969 -14.31)" fill="#fadddd"/>
  <path id="Path_41" data-name="Path 41" d="M64.11,92.623h35.4l-40.151-16.6Z" transform="translate(-22.23 -28.466)" fill="#f3b2b3"/>
  <path id="Path_42" data-name="Path 42" d="M56.74,25.337,62.159,9.794l25.25-7.974L76.242,62.906h-33.5l-3.205-8.422-1.8-4.835-.066-.177-1.269-3.4-1.1,3.465L31.109,62.8l-.034.109H13.595L1.607,28.9l15.455-5,3.258,9.583,1.3,3.8,1.094-3.869,3.461-12.237L48.139,14.11l4.891,8.831,1.434,2.59,1.354,2.447ZM61.184,8.789,55.558,24.925l-1.434-2.59L48.735,12.6,25.151,20.193,21.507,33.075l0,.009L17.85,22.335,0,28.11,12.71,64.157H31.991l.035-.109h.005l0-.008L36.5,49.909l.067.178,1.8,4.834,3.515,9.236h35.4L89.013,0Z" transform="translate(0 0)" fill="#e0364e"/>
  <rect id="Rectangle_38" data-name="Rectangle 38" width="0.751" height="17.824" transform="translate(16.982 52.236) rotate(-50.026)" fill="#e0364e"/>
  <path id="Path_43" data-name="Path 43" d="M13.744,80.347l-.716-.228L16.813,68.2,1.165,44.954l21.4,7.615-4.923,15.51.332.494-.621.418ZM3.06,46.425,17.1,67.285l4.524-14.251Z" transform="translate(-0.436 -16.834)" fill="#e0364e"/>
  <path id="Path_44" data-name="Path 44" d="M91.994,46.745,69.427,31.679l.417-.624L91.7,45.646,113.071,2.641l.672.333Z" transform="translate(-25.998 -0.989)" fill="#e0364e"/>
  <path id="Path_45" data-name="Path 45" d="M65.168,90.414l-.472-.583L85.554,72.94l-27.061,1.9-.053-.749,29.437-2.066Z" transform="translate(-21.884 -26.971)" fill="#e0364e"/>
  <path id="Path_46" data-name="Path 46" d="M27.649,59.9l-.58-.477L59.017,20.6,46.191,57.763l-.71-.245L56.947,24.3Z" transform="translate(-10.137 -7.714)" fill="#e0364e"/>
  <path id="Path_47" data-name="Path 47" d="M77.209,43.674,97.44,78.624l-38.9-15.265-.275.7,40.9,16.05L77.859,43.3Z" transform="translate(-21.817 -16.213)" fill="#e0364e"/>
  <path id="Path_48" data-name="Path 48" d="M27.567,64.654l-.169-.732,18.938-4.358L36.169,33.223l.7-.27L47.348,60.1Z" transform="translate(-10.26 -12.34)" fill="#e0364e"/>
  <g id="Group_18" data-name="Group 18" transform="translate(0)">
    <g id="Group_17" data-name="Group 17" clip-path="url(#clip-path)">
      <path id="Path_49" data-name="Path 49" d="M103.268,50.954,98.221,14.468a.188.188,0,0,1,.345-.126l19.649,31.187Zm-3.946-34,4.562,32.981,13.2-4.79Z" transform="translate(-36.78 -5.338)" fill="#e0364e"/>
      <path id="Path_50" data-name="Path 50" d="M24.317,66.189,20.656,45.14l3.968-7.752.668.342-3.853,7.528,3.618,20.8Z" transform="translate(-7.735 -14.001)" fill="#e0364e"/>
      <path id="Path_51" data-name="Path 51" d="M27.982,82.012a2.2,2.2,0,1,1-2.2-2.2,2.2,2.2,0,0,1,2.2,2.2" transform="translate(-8.832 -29.888)" fill="#e0364e"/>
      <path id="Path_52" data-name="Path 52" d="M69.888,46.881a2.81,2.81,0,1,1-2.81-2.81,2.81,2.81,0,0,1,2.81,2.81" transform="translate(-24.066 -16.503)" fill="#e0364e"/>
      <path id="Path_53" data-name="Path 53" d="M106.56,70.345a3.216,3.216,0,1,1-3.216-3.216,3.216,3.216,0,0,1,3.216,3.216" transform="translate(-37.495 -25.138)" fill="#e0364e"/>
      <path id="Path_54" data-name="Path 54" d="M119.025,45.561a1.963,1.963,0,1,1-1.963-1.963,1.963,1.963,0,0,1,1.963,1.963" transform="translate(-43.101 -16.326)" fill="#e0364e"/>
      <path id="Path_55" data-name="Path 55" d="M22.07,50.107a1.963,1.963,0,1,1-1.963-1.963,1.963,1.963,0,0,1,1.963,1.963" transform="translate(-6.794 -18.028)" fill="#e0364e"/>
      <path id="Path_56" data-name="Path 56" d="M107.285,28.01a1.251,1.251,0,1,1-1.251-1.251,1.251,1.251,0,0,1,1.251,1.251" transform="translate(-39.238 -10.02)" fill="#e0364e"/>
      <path id="Path_57" data-name="Path 57" d="M61.189,42.093a1.251,1.251,0,1,1-1.251-1.251,1.251,1.251,0,0,1,1.251,1.251" transform="translate(-21.976 -15.294)" fill="#e0364e"/>
      <path id="Path_58" data-name="Path 58" d="M63.189,62a1.251,1.251,0,1,1-1.251-1.251A1.251,1.251,0,0,1,63.189,62" transform="translate(-22.725 -22.747)" fill="#e0364e"/>
      <path id="Path_59" data-name="Path 59" d="M98.631,90.877a1.251,1.251,0,1,1-1.251-1.251,1.251,1.251,0,0,1,1.251,1.251" transform="translate(-35.997 -33.562)" fill="#e0364e"/>
      <path id="Path_60" data-name="Path 60" d="M19.171,69.521A1.251,1.251,0,1,1,17.92,68.27a1.251,1.251,0,0,1,1.251,1.251" transform="translate(-6.242 -25.565)" fill="#e0364e"/>
    </g>
  </g>
</svg>
