<svg xmlns="http://www.w3.org/2000/svg" width="16.61" height="16.61" viewBox="0 0 16.61 16.61">
  <path id="twitter-square-brands" d="M14.831,32H1.78A1.78,1.78,0,0,0,0,33.78V46.831a1.78,1.78,0,0,0,1.78,1.78H14.831a1.78,1.78,0,0,0,1.78-1.78V33.78A1.78,1.78,0,0,0,14.831,32Zm-1.813,5.888c.007.1.007.211.007.315a6.871,6.871,0,0,1-6.919,6.919,6.887,6.887,0,0,1-3.734-1.09,5.123,5.123,0,0,0,.586.03,4.875,4.875,0,0,0,3.018-1.038A2.435,2.435,0,0,1,3.7,41.336a2.621,2.621,0,0,0,1.1-.044A2.432,2.432,0,0,1,2.855,38.9v-.03a2.43,2.43,0,0,0,1.1.308A2.427,2.427,0,0,1,2.87,37.157,2.4,2.4,0,0,1,3.2,35.93a6.9,6.9,0,0,0,5.013,2.543,2.437,2.437,0,0,1,4.149-2.221,4.765,4.765,0,0,0,1.542-.586,2.425,2.425,0,0,1-1.068,1.338,4.839,4.839,0,0,0,1.4-.378A5.118,5.118,0,0,1,13.018,37.888Z" transform="translate(0 -32)" fill="#fff"/>
</svg>
