<svg xmlns="http://www.w3.org/2000/svg" width="162.011" height="31.162" viewBox="0 0 162.011 31.162">
  <g id="Group_460" data-name="Group 460" transform="translate(-33.017 -18)">
    <path id="Path_61" data-name="Path 61" d="M14.6,7.171,12.941,25.349h-.068L11.116,7.171H7.062L5.3,25.349H5.237L3.582,7.171H0L2.4,30.823H7.333L9.021,14.874h.068l1.689,15.949h4.629l2.4-23.652Z" transform="translate(33.018 18.001)" fill="#474645"/>
    <rect id="Rectangle_40" data-name="Rectangle 40" width="3.717" height="23.652" transform="translate(52.716 25.172)" fill="#474645"/>
    <path id="Path_62" data-name="Path 62" d="M34.527,7.171V21.328h-.068L30.844,7.171H26.181V30.823h3.311V13.557h.069l4.459,17.266h3.819V7.171Z" transform="translate(33.022 18.001)" fill="#474645"/>
    <path id="Path_63" data-name="Path 63" d="M48.951,7.171V21.328h-.068L45.267,7.171H40.6V30.823h3.312V13.557h.068l4.46,17.266h3.818V7.171Z" transform="translate(33.024 18.001)" fill="#474645"/>
    <path id="Path_64" data-name="Path 64" d="M55.03,7.171V30.823H65.166v-3.38h-6.42V20.18h5.1V16.8h-5.1V10.55h6.42V7.171Z" transform="translate(33.027 18.001)" fill="#474645"/>
    <path id="Path_65" data-name="Path 65" d="M67.292,7.17H72.8A5.692,5.692,0,0,1,76.99,8.505a5.638,5.638,0,0,1,1.317,4.1v1.453q0,3.683-2.432,4.663v.068a2.906,2.906,0,0,1,1.909,1.655,8.354,8.354,0,0,1,.556,3.345V27.95a15.554,15.554,0,0,0,.069,1.638,4.078,4.078,0,0,0,.337,1.233H74.962a5.418,5.418,0,0,1-.271-1.08,16.337,16.337,0,0,1-.067-1.825V23.592a3.665,3.665,0,0,0-.524-2.263,2.215,2.215,0,0,0-1.807-.643H71.009V30.822H67.292ZM72.36,17.307a2.229,2.229,0,0,0,1.673-.574,2.717,2.717,0,0,0,.556-1.925V12.983a3,3,0,0,0-.456-1.86,1.725,1.725,0,0,0-1.435-.574H71.009v6.758Z" transform="translate(33.029 18.001)" fill="#474645"/>
    <path id="Path_66" data-name="Path 66" d="M87.478,29.641a6.1,6.1,0,0,1-1.4-4.292v-12.7a6.094,6.094,0,0,1,1.4-4.292,6.213,6.213,0,0,1,8.143,0,6.1,6.1,0,0,1,1.4,4.292v2.5H93.509V12.408q0-2.195-1.858-2.2t-1.859,2.2V25.62q0,2.163,1.859,2.162t1.858-2.162V22h3.514v3.345a6.105,6.105,0,0,1-1.4,4.292,6.213,6.213,0,0,1-8.143,0" transform="translate(33.032 18.001)" fill="#e0364e"/>
    <path id="Path_67" data-name="Path 67" d="M102.123,7.17h5.035l3.852,23.652h-3.717l-.675-4.7v.067h-4.225l-.675,4.629H98.271Zm4.055,15.814-1.655-11.69h-.068l-1.622,11.69Z" transform="translate(33.034 18.001)" fill="#e0364e"/>
    <path id="Path_68" data-name="Path 68" d="M114.148,10.549h-3.886V7.171h11.489v3.379h-3.886V30.823h-3.718Z" transform="translate(33.036 18.001)" fill="#e0364e"/>
    <path id="Path_69" data-name="Path 69" d="M124.57,29.641a6.1,6.1,0,0,1-1.4-4.292v-12.7a6.1,6.1,0,0,1,1.4-4.292,6.213,6.213,0,0,1,8.143,0,6.1,6.1,0,0,1,1.4,4.292v2.5H130.6V12.408q0-2.195-1.858-2.2t-1.858,2.2V25.62q0,2.163,1.858,2.162T130.6,25.62V22h3.514v3.345a6.105,6.105,0,0,1-1.4,4.292,6.213,6.213,0,0,1-8.143,0" transform="translate(33.038 18.001)" fill="#e0364e"/>
    <path id="Path_70" data-name="Path 70" d="M136.343,7.171h3.718V16.8h3.987V7.171h3.717V30.822h-3.717V20.18H140.06V30.822h-3.718Z" transform="translate(33.04 18.001)" fill="#e0364e"/>
    <path id="Path_71" data-name="Path 71" d="M150.532,7.17h5.507a5.692,5.692,0,0,1,4.191,1.335,5.638,5.638,0,0,1,1.317,4.1v1.453q0,3.683-2.432,4.663v.068a2.906,2.906,0,0,1,1.909,1.655,8.352,8.352,0,0,1,.557,3.345V27.95a15.591,15.591,0,0,0,.068,1.638,4.079,4.079,0,0,0,.337,1.233H158.2a5.419,5.419,0,0,1-.271-1.08,16.344,16.344,0,0,1-.067-1.825V23.592a3.665,3.665,0,0,0-.524-2.263,2.216,2.216,0,0,0-1.807-.643h-1.284V30.822h-3.717ZM155.6,17.307a2.229,2.229,0,0,0,1.673-.574,2.717,2.717,0,0,0,.557-1.925V12.983a3,3,0,0,0-.457-1.86,1.725,1.725,0,0,0-1.435-.574h-1.689v6.758Z" transform="translate(33.042 18.001)" fill="#e0364e"/>
    <path id="Path_165" data-name="Path 165" d="M0,0H3.768V3.768H0Z" transform="translate(52.691 18)" fill="#ffc412"/>
  </g>
</svg>
